<?xml version="1.0" standalone="no"?>
<!DOCTYPE svg PUBLIC "-//W3C//DTD SVG 20010904//EN"
 "http://www.w3.org/TR/2001/REC-SVG-20010904/DTD/svg10.dtd">
<svg version="1.0" xmlns="http://www.w3.org/2000/svg"
 width="215.000000pt" height="95.000000pt" viewBox="0 0 215.000000 95.000000"
 preserveAspectRatio="xMidYMid meet">

<g transform="translate(0.000000,95.000000) scale(0.100000,-0.100000)"
fill="#000000" stroke="none">
<path d="M1011 808 l-60 -101 -69 2 -69 2 -22 -37 c-12 -20 -20 -38 -18 -40 2
-2 12 12 23 31 18 34 20 35 81 35 38 0 63 -4 63 -11 0 -5 -4 -7 -10 -4 -6 4
-7 -1 -3 -11 4 -11 3 -15 -5 -10 -6 3 -14 1 -18 -5 -5 -8 -3 -9 6 -4 8 5 11 3
8 -6 -3 -8 -11 -13 -17 -11 -6 1 0 -20 14 -48 27 -52 26 -106 -1 -96 -8 3 -11
0 -7 -10 9 -24 19 -16 36 26 15 39 15 43 -3 73 l-20 33 73 125 c40 68 77 124
82 123 6 0 40 -51 77 -114 59 -101 67 -110 70 -84 3 27 6 29 58 35 l55 6 -57
1 c-37 1 -58 -2 -61 -10 -6 -18 -6 -17 -77 105 -34 59 -64 107 -66 107 -2 0
-30 -46 -63 -102z"/>
<path d="M1006 734 c-64 -109 -67 -118 -55 -141 l14 -25 17 38 c10 22 22 51
27 67 9 25 14 27 64 27 l54 0 29 -66 c29 -66 29 -66 43 -41 12 23 9 32 -45
123 -31 55 -62 107 -69 116 -10 15 -21 1 -79 -98z"/>
<path d="M10 723 c0 -3 11 -21 26 -40 l25 -33 267 1 267 1 34 39 33 39 -326 0
c-179 0 -326 -3 -326 -7z"/>
<path d="M1518 699 c18 -17 32 -35 32 -40 0 -5 121 -9 269 -9 l270 0 25 33
c15 19 26 37 26 40 0 4 -147 7 -327 7 l-327 0 32 -31z"/>
<path d="M657 703 c-4 -3 -7 -58 -7 -122 l-1 -116 -24 28 c-25 28 -27 28 -145
30 -66 1 -120 0 -120 -3 0 -3 14 -22 31 -43 l30 -37 177 2 c97 1 151 3 120 5
l-58 4 0 125 0 126 55 -4 c30 -1 55 0 55 5 0 9 -104 10 -113 0z"/>
<path d="M1351 681 c-12 -16 -21 -35 -21 -43 1 -7 9 3 19 22 18 33 22 35 82
41 l64 6 -62 1 c-58 2 -63 0 -82 -27z"/>
<path d="M680 575 l0 -105 30 0 30 0 0 105 0 105 -30 0 -30 0 0 -105z"/>
<path d="M805 639 c-39 -61 -39 -64 -8 -118 25 -45 32 -51 61 -51 l33 0 -30
53 -31 54 30 47 c17 26 30 49 30 51 0 3 -13 5 -30 5 -24 0 -35 -8 -55 -41z"/>
<path d="M996 588 c-21 -51 -40 -99 -43 -105 -3 -9 5 -13 26 -13 24 0 34 6 41
25 8 22 16 25 55 25 39 0 47 -3 55 -25 7 -19 17 -25 41 -25 21 0 29 4 26 13
-3 6 -22 54 -43 105 l-38 92 -41 0 -41 0 -38 -92z m104 -15 c0 -7 -11 -13 -25
-13 -28 0 -30 4 -13 51 l12 34 12 -30 c7 -17 13 -36 14 -42z"/>
<path d="M1250 575 l0 -105 39 0 c39 0 41 2 73 62 l33 62 3 -62 c3 -61 3 -62
32 -62 l30 0 0 105 0 105 -39 0 c-37 0 -40 -2 -72 -62 l-34 -63 -3 63 c-3 61
-3 62 -32 62 l-30 0 0 -105z"/>
<path d="M86 618 c4 -7 19 -28 32 -45 l24 -33 225 0 225 0 -6 23 c-3 12 -6 32
-6 45 l0 22 -251 0 c-197 0 -249 -3 -243 -12z"/>
<path d="M1570 601 c0 -16 -3 -36 -6 -45 -5 -14 18 -16 219 -16 l225 0 24 33
c13 17 28 38 32 45 6 9 -46 12 -243 12 l-251 0 0 -29z"/>
<path d="M1205 574 c-16 -26 -15 -41 3 -30 8 5 23 56 17 56 -2 0 -10 -12 -20
-26z"/>
<path d="M880 530 c6 -11 13 -20 16 -20 2 0 0 9 -6 20 -6 11 -13 20 -16 20 -2
0 0 -9 6 -20z"/>
<path d="M1207 510 c3 -11 9 -20 13 -20 5 0 6 9 3 20 -3 11 -9 20 -13 20 -5 0
-6 -9 -3 -20z"/>
<path d="M1668 520 c-114 -5 -117 -6 -152 -37 -30 -28 -43 -33 -85 -33 -49 0
-50 1 -53 33 l-3 32 -18 -32 -18 -33 -103 0 -104 0 -26 -45 c-15 -25 -29 -45
-31 -45 -2 0 -16 20 -31 45 l-26 45 -102 0 -101 0 -19 35 c-11 19 -21 33 -23
31 -2 -2 6 -20 18 -40 l21 -36 94 0 94 0 28 -46 c50 -84 45 -84 83 -16 l34 62
97 0 c86 0 98 2 111 20 l14 21 6 -21 c5 -19 12 -20 180 -20 l175 0 31 35 c17
20 31 40 31 45 0 6 -1 9 -2 8 -2 -1 -55 -4 -120 -8z"/>
<path d="M1040 491 c0 -5 -2 -15 -5 -23 -3 -7 5 -30 18 -51 l23 -38 22 39 c29
53 21 82 -24 82 -19 0 -34 -4 -34 -9z"/>
<path d="M557 395 c18 -24 19 -24 192 -25 170 0 174 0 203 25 l30 25 -222 0
-221 0 18 -25z"/>
<path d="M1198 395 c29 -25 33 -25 202 -25 171 0 173 0 196 25 l23 25 -225 0
-226 0 30 -25z"/>
<path d="M364 275 c-10 -8 -14 -15 -8 -15 6 0 17 7 24 15 16 19 9 19 -16 0z"/>
<path d="M404 228 c-38 -56 -50 -79 -27 -50 l19 24 17 -24 17 -23 -12 28 c-10
23 -9 33 6 58 26 43 13 35 -20 -13z"/>
<path d="M472 150 c-28 -44 -49 -80 -47 -80 5 0 77 105 94 138 24 44 4 20 -47
-58z"/>
<path d="M574 205 c-9 -14 -15 -27 -13 -30 3 -2 12 10 21 26 21 36 15 39 -8 4z"/>
<path d="M720 209 c-16 -30 -8 -31 13 -3 10 13 13 24 8 24 -6 0 -15 -9 -21
-21z"/>
<path d="M765 201 c-9 -18 -14 -35 -11 -39 3 -3 6 -1 6 4 0 6 7 19 16 30 15
18 15 18 11 -8 -2 -15 0 -25 4 -22 11 7 11 35 0 53 -7 11 -13 6 -26 -18z"/>
<path d="M984 208 l-19 -23 23 19 c21 18 27 26 19 26 -2 0 -12 -10 -23 -22z"/>
<path d="M1090 209 c-6 -11 -10 -26 -8 -33 2 -7 10 2 19 20 18 36 7 48 -11 13z"/>
<path d="M1300 220 c-9 -6 -10 -10 -3 -10 6 0 15 5 18 10 8 12 4 12 -15 0z"/>
<path d="M1378 211 c3 -8 1 -12 -5 -8 -6 4 -8 -4 -4 -21 5 -25 6 -25 9 -5 2
13 13 30 25 38 22 15 22 15 -5 13 -18 -2 -24 -7 -20 -17z"/>
<path d="M1545 220 c-3 -6 1 -7 9 -4 18 7 21 14 7 14 -6 0 -13 -4 -16 -10z"/>
<path d="M1601 204 c-19 -25 -27 -44 -17 -44 2 0 13 16 25 35 24 42 21 45 -8
9z"/>
<path d="M541 204 c0 -11 3 -14 6 -6 3 7 2 16 -1 19 -3 4 -6 -2 -5 -13z"/>
<path d="M631 202 c-6 -12 -11 -27 -11 -34 0 -7 7 0 15 16 9 16 13 31 11 33
-2 3 -9 -4 -15 -15z"/>
<path d="M852 202 c9 -9 17 -24 20 -32 3 -11 6 -9 10 6 4 14 -2 23 -20 32 -23
10 -23 10 -10 -6z"/>
<path d="M1000 176 c-12 -25 -43 -64 -68 -87 -26 -22 -38 -36 -27 -31 29 15
111 104 120 131 13 41 -2 33 -25 -13z"/>
<path d="M1453 213 c-16 -6 -17 -53 -2 -53 5 0 7 4 4 10 -3 5 -1 19 5 30 6 11
9 20 8 19 -2 0 -9 -3 -15 -6z"/>
<path d="M1642 208 c-7 -7 -12 -21 -12 -32 0 -17 3 -16 15 8 17 32 15 42 -3
24z"/>
<path d="M1682 195 c-15 -32 -15 -35 0 -35 6 0 8 3 5 6 -3 4 -2 15 4 26 6 11
9 22 6 24 -2 2 -9 -7 -15 -21z"/>
<path d="M597 191 c-4 -17 -3 -21 5 -13 5 5 8 16 6 23 -3 8 -7 3 -11 -10z"/>
<path d="M1168 197 c5 -7 11 -19 14 -27 3 -10 6 -8 10 7 4 15 0 23 -14 26 -14
4 -16 2 -10 -6z"/>
<path d="M1323 184 c-13 -14 -18 -24 -11 -22 10 4 45 48 37 48 -2 0 -14 -12
-26 -26z"/>
<path d="M1492 180 c0 -14 2 -19 5 -12 2 6 2 18 0 25 -3 6 -5 1 -5 -13z"/>
<path d="M1732 180 c0 -14 2 -19 5 -12 2 6 2 18 0 25 -3 6 -5 1 -5 -13z"/>
<path d="M520 170 c-9 -6 -10 -10 -3 -10 6 0 15 5 18 10 8 12 4 12 -15 0z"/>
<path d="M810 170 c0 -5 5 -10 11 -10 5 0 7 5 4 10 -3 6 -8 10 -11 10 -2 0 -4
-4 -4 -10z"/>
<path d="M1030 170 c0 -5 5 -10 11 -10 5 0 7 5 4 10 -3 6 -8 10 -11 10 -2 0
-4 -4 -4 -10z"/>
<path d="M1120 170 c0 -5 5 -10 11 -10 5 0 7 5 4 10 -3 6 -8 10 -11 10 -2 0
-4 -4 -4 -10z"/>
<path d="M1556 166 c3 -8 -10 -32 -33 -58 -21 -23 -27 -34 -13 -23 54 44 72
76 50 90 -5 3 -7 0 -4 -9z"/>
</g>
</svg>
